<svg width="1920" height="1080" viewBox="0 0 1920 1080" fill="none" xmlns="http://www.w3.org/2000/svg">
<g clip-path="url(#clip0_1_2)">
<rect width="1920" height="1080" fill="#1E1E1E"/>
<path d="M1686.96 -165.652C1694.05 -168.639 1701.72 -162.826 1700.76 -155.188L1651.19 238.889C1650.23 246.527 1641.36 250.261 1635.23 245.61L1318.73 5.64511C1312.6 0.994224 1313.8 -8.55305 1320.89 -11.54L1686.96 -165.652Z" fill="#282828"/>
<path d="M2292.79 986.949C2294.5 992.294 2291.48 998.004 2286.1 999.596L1186.33 1324.7C1177.84 1327.21 1170.52 1318.26 1174.66 1310.43L1923.8 -106.564C1927.94 -114.39 1939.46 -113.376 1942.16 -104.947L2292.79 986.949Z" fill="#282828"/>
<path d="M229.705 647.265C236.416 643.495 244.692 648.404 244.602 656.101L236.824 1316.67C236.733 1324.37 228.344 1329.08 221.723 1325.15L-346.458 988.134C-353.079 984.207 -352.966 974.585 -346.254 970.815L229.705 647.265Z" fill="#282828"/>
</g>
<defs>
<clipPath id="clip0_1_2">
<rect width="1920" height="1080" fill="white"/>
</clipPath>
</defs>
</svg>
