<svg width="197" height="202" viewBox="0 0 197 202" fill="none" xmlns="http://www.w3.org/2000/svg">
<path d="M10.6914 55.3235L43.6914 80.8235C56.6914 45.3235 100.191 22.3235 139.191 55.3235L167.691 26.3235C141.191 -1.67653 59.4914 -25.4765 10.6914 55.3235Z" fill="#C83F3F"/>
<path d="M43.6914 80.8235L10.6914 55.3235C-8.90856 98.5235 2.85811 133.657 11.1914 145.824L43.6914 119.823C39.2914 101.023 42.1914 86.3235 43.6914 80.8235Z" fill="#FBBC05"/>
<path d="M134.691 152.324C86.6914 179.924 52.1914 144.323 43.6914 119.823L11.1914 145.824C59.6914 226.824 141.191 202.324 166.191 176.824C152.991 165.624 139.691 155.824 134.691 152.324Z" fill="#34A853"/>
<path d="M154.691 120.824C154.291 135.224 141.191 147.824 134.691 152.324C139.691 155.824 152.991 165.624 166.191 176.824C197.391 150.824 198.191 102.657 194.691 81.8235H100.191V120.824H154.691Z" fill="#4285FA"/>
</svg>
