<svg width="1305" height="859" viewBox="0 0 1305 859" fill="none" xmlns="http://www.w3.org/2000/svg">
<path d="M893.958 492.472C888.435 492.472 883.958 487.995 883.958 482.472V414.286C883.958 408.763 888.435 404.286 893.958 404.286H1027.93C1033.45 404.286 1037.93 399.809 1037.93 394.286V262.542C1037.93 257.019 1042.41 252.542 1047.93 252.542H1116.82C1122.34 252.542 1126.82 257.019 1126.82 262.542V394.286C1126.82 399.809 1131.3 404.286 1136.82 404.286H1270C1275.52 404.286 1280 408.763 1280 414.286V482.472C1280 487.995 1275.52 492.472 1270 492.472H1136.82C1131.3 492.472 1126.82 496.95 1126.82 502.472V639.778C1126.82 645.301 1122.34 649.778 1116.82 649.778H1047.93C1042.41 649.778 1037.93 645.301 1037.93 639.778V502.472C1037.93 496.95 1033.45 492.472 1027.93 492.472H893.958Z" fill="#FBBC05"/>
<path d="M189.159 701.955C185.052 701.982 181.347 699.495 179.815 695.684L31.517 326.651C28.8765 320.08 33.7143 312.922 40.7958 312.922H118.915C123.161 312.922 126.944 315.603 128.351 319.609L219.555 579.344C222.616 588.061 234.742 588.281 238.03 579.648C257.597 528.273 287.973 444.525 305.372 400.314C328.477 341.603 397.438 316.1 439.503 313.716L633.554 312.205C639.046 312.162 643.476 307.697 643.476 302.205V234.736C643.476 229.213 647.953 224.736 653.476 224.736H720.78C726.303 224.736 730.78 229.213 730.78 234.736V302.127C730.78 307.65 735.257 312.127 740.78 312.127H817.608C823.13 312.127 827.608 316.605 827.608 322.127V377.602C827.608 383.125 823.13 387.602 817.608 387.602H743.91C738.404 387.602 733.935 392.052 733.91 397.557L733.161 564.982C733.161 611.643 752.209 629.916 776.019 629.916H827.608L828.287 689.8C828.35 695.334 823.906 699.867 818.371 699.913L733.161 700.624C662.683 700.624 644.005 633.888 643.476 599.726V399.191C643.476 393.668 638.999 389.191 633.476 389.191H472.837C423.606 390.731 390.777 423.616 381.576 442.999C381.016 444.179 380.44 445.232 379.845 446.394C369.744 466.142 289.186 658.521 273.784 695.343C272.237 699.042 268.642 701.435 264.632 701.462L189.159 701.955Z" fill="#7D7D7D"/>
<path d="M472.519 699.035C466.996 699.035 462.519 694.558 462.519 689.035V443.682C462.519 438.159 466.996 433.682 472.519 433.682H542.997C548.52 433.682 552.997 438.159 552.997 443.682V689.035C552.997 694.558 548.52 699.035 542.997 699.035H472.519Z" fill="#7D7D7D"/>
<path d="M454.582 208.846C455.852 171.347 487.916 159.324 503.79 158C523.103 158.794 561.252 170.553 559.347 211.23C557.442 251.907 521.515 262.076 503.79 262.076C486.858 259.957 453.312 246.345 454.582 208.846Z" fill="#FBBC05"/>
</svg>
