<svg width="500" height="200" viewBox="0 0 500 200" fill="none" xmlns="http://www.w3.org/2000/svg">
<path d="M134.223 49.9273L163.932 134.168H165.105L194.814 49.9273H207.518L170.773 150H158.264L121.518 49.9273H134.223ZM221.542 150V74.9454H233.074V150H221.542ZM227.406 62.4364C225.158 62.4364 223.22 61.6708 221.591 60.1398C219.995 58.6087 219.197 56.7682 219.197 54.6182C219.197 52.4682 219.995 50.6276 221.591 49.0966C223.22 47.5655 225.158 46.8 227.406 46.8C229.653 46.8 231.575 47.5655 233.172 49.0966C234.8 50.6276 235.615 52.4682 235.615 54.6182C235.615 56.7682 234.8 58.6087 233.172 60.1398C231.575 61.6708 229.653 62.4364 227.406 62.4364ZM286.836 74.9454V84.7182H247.941V74.9454H286.836ZM259.277 56.9636H270.809V128.5C270.809 131.758 271.281 134.201 272.226 135.83C273.203 137.426 274.441 138.501 275.939 139.055C277.471 139.576 279.083 139.836 280.777 139.836C282.047 139.836 283.09 139.771 283.904 139.641C284.719 139.478 285.37 139.348 285.859 139.25L288.204 149.609C287.422 149.902 286.331 150.195 284.93 150.489C283.53 150.814 281.754 150.977 279.604 150.977C276.347 150.977 273.154 150.277 270.027 148.876C266.932 147.475 264.359 145.342 262.307 142.475C260.287 139.608 259.277 135.992 259.277 131.627V56.9636ZM330.813 143.159V78.6591H341.759V143.159H330.813ZM304.036 116.382V105.436H368.536V116.382H304.036Z" fill="black"/>
</svg>
